# xmcd
#
# Track frame offsets:
#	150
#	13090
#	28280
#	39740
#	54503
#	64671
#	79405
#	92913
#	104488
#	118808
#
# Disc length: 1757 seconds
#
# Revision: 0
# Processed by: cddbd v1.5.2PL0 Copyright (c) Steve Scherf et al.
# Submitted via: EasyCDDAExtractor 16.0.6.1
#
DISCID=8c06db0a
DTITLE=Συλλογικός δίσκος - Λαϊκό τραγούδι 1954-1967, 1965-5
DYEAR=2008
DGENRE=Λαϊκή
TTITLE0=Μοσχολιού Βίκυ - Ένα αστέρι πέφτει, πέφτει [Απόστολος Καλδάρας-Γιώργος
TTITLE0=Σαμολαδάς]
TTITLE1=Μοσχολιού Βίκυ - Ποιο μονοπάτι να διαβώ [Γιώργος Ζαμπέτας-Γιάννης Παπα
TTITLE1=νικολόπουλος]
TTITLE2=Μπιθικώτσης Γρηγόρης-χορωδία - Ο καβαλάρης τ' ουρανού [Μίκης Θεοδωράκη
TTITLE2=ς]
TTITLE3=Καζαντζίδης Στέλιος - Γελάτε, μα δεν ξέρετε [Στέλιος Καζαντζίδης-Στέφα
TTITLE3=νος Βαρτάνης]
TTITLE4=Τσαουσάκης Πρόδρομος-Γρίλλη Μαρία - Εκεί που είσαι, ήμουνα [Δημήτρης Γ
TTITLE4=κούτης]
TTITLE5=Ζαγοραίος Σπύρος - Βάλτε μου δυό γαρουφαλιές [Δημήτρης Γκούτης-Σπύρος 
TTITLE5=Ζαγοραίος]
TTITLE6=Τσαουσάκης Πρόδρομος - Καλή μου σχίζω τα χαρτιά [Πρόδρομος Τσαουσάκης-
TTITLE6=Λεονάρδος Μπουρνέλης]
TTITLE7=Ζαγοραίος Σπύρος - Ούτε μιλάει, ούτε λαλάει [Θεόδωρος Δερβενιώτης-Κώστ
TTITLE7=ας Βίρβος]
TTITLE8=Γαβαλάς Πάνος - Άπονε έρωτά μου [Πάνος Γαβαλάς-Βασίλης Βασιλειάδης]
TTITLE9=Μοσχολιού Βίκυ-Ζαμπέτας Γιώργος - Πάει, πάει [Γιώργος Ζαμπέτας-Χαράλαμ
TTITLE9=πος Βασιλειάδης]
EXTD=
EXTT0=
EXTT1=
EXTT2=
EXTT3=
EXTT4=
EXTT5=
EXTT6=
EXTT7=
EXTT8=
EXTT9=
PLAYORDER=
